<svg width="1568" height="470" viewBox="0 0 1568 470" fill="none" xmlns="http://www.w3.org/2000/svg">
<path d="M274.5 220.5C94.1 85.3 68 17.1667 -7 0L-37.5 645.5C492.5 637.667 1589.9 598.5 1439.5 504.5C1289.1 410.5 1046.5 379.333 944 375.5C796 380.167 454.9 355.7 274.5 220.5Z" fill="url(#paint0_linear_389_460)"/>
<circle cx="814" cy="482" r="140.5" stroke="white" stroke-width="3"/>
<circle cx="820" cy="482" r="140.5" stroke="white" stroke-width="3"/>
<circle cx="827" cy="482" r="140.5" stroke="white" stroke-width="3"/>
<circle cx="834" cy="482" r="140.5" stroke="white" stroke-width="3"/>
<circle cx="841" cy="482" r="140.5" stroke="white" stroke-width="3"/>
<circle cx="848" cy="482" r="140.5" stroke="white" stroke-width="3"/>
<circle cx="855" cy="482" r="140.5" stroke="white" stroke-width="3"/>
<circle cx="862" cy="482" r="140.5" stroke="white" stroke-width="3"/>
<circle cx="869" cy="482" r="140.5" stroke="white" stroke-width="3"/>
<circle cx="876" cy="482" r="140.5" stroke="white" stroke-width="3"/>
<circle cx="883" cy="482" r="140.5" stroke="white" stroke-width="3"/>
<circle cx="890" cy="482" r="140.5" stroke="white" stroke-width="3"/>
<circle cx="897" cy="482" r="140.5" stroke="white" stroke-width="3"/>
<circle cx="904" cy="482" r="140.5" stroke="white" stroke-width="3"/>
<circle cx="911" cy="482" r="140.5" stroke="white" stroke-width="3"/>
<circle cx="918" cy="482" r="140.5" stroke="white" stroke-width="3"/>
<circle cx="925" cy="482" r="140.5" stroke="white" stroke-width="3"/>
<circle cx="932" cy="482" r="140.5" stroke="white" stroke-width="3"/>
<circle cx="939" cy="482" r="140.5" stroke="white" stroke-width="3"/>
<circle cx="946" cy="482" r="140.5" stroke="white" stroke-width="3"/>
<circle cx="953" cy="482" r="140.5" stroke="white" stroke-width="3"/>
<circle cx="960" cy="482" r="140.5" stroke="white" stroke-width="3"/>
<circle cx="967" cy="482" r="140.5" stroke="white" stroke-width="3"/>
<circle cx="974" cy="482" r="140.5" stroke="white" stroke-width="3"/>
<circle cx="981" cy="482" r="140.5" stroke="white" stroke-width="3"/>
<circle cx="988" cy="482" r="140.5" stroke="white" stroke-width="3"/>
<circle cx="995" cy="482" r="140.5" stroke="white" stroke-width="3"/>
<circle cx="1002" cy="482" r="140.5" stroke="white" stroke-width="3"/>
<circle cx="1009" cy="482" r="140.5" stroke="white" stroke-width="3"/>
<circle cx="1016" cy="482" r="140.5" stroke="white" stroke-width="3"/>
<circle cx="1023" cy="482" r="140.5" stroke="white" stroke-width="3"/>
<circle cx="1030" cy="482" r="140.5" stroke="white" stroke-width="3"/>
<circle cx="1037" cy="482" r="140.5" stroke="white" stroke-width="3"/>
<circle cx="1044" cy="482" r="140.5" stroke="white" stroke-width="3"/>
<circle cx="1051" cy="482" r="140.5" stroke="white" stroke-width="3"/>
<circle cx="1058" cy="482" r="140.5" stroke="white" stroke-width="3"/>
<circle cx="1065" cy="482" r="140.5" stroke="white" stroke-width="3"/>
<circle cx="1072" cy="482" r="140.5" stroke="white" stroke-width="3"/>
<circle cx="1079" cy="482" r="140.5" stroke="white" stroke-width="3"/>
<circle cx="1086" cy="482" r="140.5" stroke="white" stroke-width="3"/>
<circle cx="1093" cy="482" r="140.5" stroke="white" stroke-width="3"/>
<circle cx="1100" cy="482" r="140.5" stroke="white" stroke-width="3"/>
<circle cx="1107" cy="482" r="140.5" stroke="white" stroke-width="3"/>
<circle cx="1114" cy="482" r="140.5" stroke="white" stroke-width="3"/>
<circle cx="1121" cy="482" r="140.5" stroke="white" stroke-width="3"/>
<circle cx="1128" cy="482" r="140.5" stroke="white" stroke-width="3"/>
<circle cx="1135" cy="482" r="140.5" stroke="white" stroke-width="3"/>
<circle cx="1142" cy="482" r="140.5" stroke="white" stroke-width="3"/>
<circle cx="1149" cy="482" r="140.5" stroke="white" stroke-width="3"/>
<circle cx="1156" cy="482" r="140.5" stroke="white" stroke-width="3"/>
<circle cx="1163" cy="482" r="140.5" stroke="white" stroke-width="3"/>
<circle cx="1170" cy="482" r="140.5" stroke="white" stroke-width="3"/>
<circle cx="1177" cy="482" r="140.5" stroke="white" stroke-width="3"/>
<circle cx="1184" cy="482" r="140.5" stroke="white" stroke-width="3"/>
<circle cx="1191" cy="482" r="140.5" stroke="white" stroke-width="3"/>
<circle cx="1198" cy="482" r="140.5" stroke="white" stroke-width="3"/>
<circle cx="1205" cy="482" r="140.5" stroke="white" stroke-width="3"/>
<circle cx="1212" cy="482" r="140.5" stroke="white" stroke-width="3"/>
<circle cx="1219" cy="482" r="140.5" stroke="white" stroke-width="3"/>
<circle cx="1226" cy="482" r="140.5" stroke="white" stroke-width="3"/>
<circle cx="1233" cy="482" r="140.5" stroke="white" stroke-width="3"/>
<circle cx="1240" cy="482" r="140.5" stroke="white" stroke-width="3"/>
<circle cx="1247" cy="482" r="140.5" stroke="white" stroke-width="3"/>
<circle cx="1254" cy="482" r="140.5" stroke="white" stroke-width="3"/>
<circle cx="1261" cy="482" r="140.5" stroke="white" stroke-width="3"/>
<circle cx="1268" cy="482" r="140.5" stroke="white" stroke-width="3"/>
<circle cx="1275" cy="482" r="140.5" stroke="white" stroke-width="3"/>
<circle cx="1282" cy="482" r="140.5" stroke="white" stroke-width="3"/>
<circle cx="1289" cy="482" r="140.5" stroke="white" stroke-width="3"/>
<circle cx="1296" cy="482" r="140.5" stroke="white" stroke-width="3"/>
<circle cx="1303" cy="482" r="140.5" stroke="white" stroke-width="3"/>
<circle cx="1310" cy="482" r="140.5" stroke="white" stroke-width="3"/>
<circle cx="1317" cy="482" r="140.5" stroke="white" stroke-width="3"/>
<circle cx="1324" cy="482" r="140.5" stroke="white" stroke-width="3"/>
<circle cx="1331" cy="482" r="140.5" stroke="white" stroke-width="3"/>
<circle cx="1338" cy="482" r="140.5" stroke="white" stroke-width="3"/>
<circle cx="1345" cy="482" r="140.5" stroke="white" stroke-width="3"/>
<circle cx="1352" cy="482" r="140.5" stroke="white" stroke-width="3"/>
<circle cx="1359" cy="482" r="140.5" stroke="white" stroke-width="3"/>
<circle cx="1366" cy="482" r="140.5" stroke="white" stroke-width="3"/>
<circle cx="1373" cy="482" r="140.5" stroke="white" stroke-width="3"/>
<circle cx="1380" cy="482" r="140.5" stroke="white" stroke-width="3"/>
<circle cx="1387" cy="482" r="140.5" stroke="white" stroke-width="3"/>
<circle cx="1394" cy="482" r="140.5" stroke="white" stroke-width="3"/>
<circle cx="1401" cy="482" r="140.5" stroke="white" stroke-width="3"/>
<circle cx="1408" cy="482" r="140.5" stroke="white" stroke-width="3"/>
<circle cx="1415" cy="482" r="140.5" stroke="white" stroke-width="3"/>
<circle cx="1422" cy="482" r="140.5" stroke="white" stroke-width="3"/>
<circle cx="1429" cy="482" r="140.5" stroke="white" stroke-width="3"/>
<circle cx="1436" cy="482" r="140.5" stroke="white" stroke-width="3"/>
<circle cx="1443" cy="482" r="140.5" stroke="white" stroke-width="3"/>
<circle cx="1450" cy="482" r="140.5" stroke="white" stroke-width="3"/>
<circle cx="1457" cy="482" r="140.5" stroke="white" stroke-width="3"/>
<circle cx="1464" cy="482" r="140.5" stroke="white" stroke-width="3"/>
<circle cx="1471" cy="482" r="140.5" stroke="white" stroke-width="3"/>
<circle cx="1478" cy="482" r="140.5" stroke="white" stroke-width="3"/>
<circle cx="1485" cy="482" r="140.5" stroke="white" stroke-width="3"/>
<circle cx="1492" cy="482" r="140.5" stroke="white" stroke-width="3"/>
<circle cx="1499" cy="482" r="140.5" stroke="white" stroke-width="3"/>
<circle cx="1506" cy="482" r="140.5" stroke="white" stroke-width="3"/>
<circle cx="1513" cy="482" r="140.5" stroke="white" stroke-width="3"/>
<circle cx="1520" cy="482" r="140.5" stroke="white" stroke-width="3"/>
<circle cx="1527" cy="482" r="140.5" stroke="white" stroke-width="3"/>
<path d="M350 331L410.622 436H289.378L350 331Z" fill="white"/>
<path d="M294.5 304L325.244 357.25H263.756L294.5 304Z" fill="white"/>
<path d="M294 357L313.053 390H274.947L294 357Z" fill="white"/>
<rect x="15" y="111" width="12" height="12" rx="6" fill="white"/>
<rect x="40" y="111" width="12" height="12" rx="6" fill="white"/>
<rect x="65" y="111" width="12" height="12" rx="6" fill="white"/>
<rect x="90" y="111" width="12" height="12" rx="6" fill="white"/>
<rect x="15" y="133" width="12" height="12" rx="6" fill="white"/>
<rect x="40" y="133" width="12" height="12" rx="6" fill="white"/>
<rect x="65" y="133" width="12" height="12" rx="6" fill="white"/>
<rect x="90" y="133" width="12" height="12" rx="6" fill="white"/>
<rect x="15" y="155" width="12" height="12" rx="6" fill="white"/>
<rect x="40" y="155" width="12" height="12" rx="6" fill="white"/>
<rect x="65" y="155" width="12" height="12" rx="6" fill="white"/>
<rect x="90" y="155" width="12" height="12" rx="6" fill="white"/>
<rect x="15" y="177" width="12" height="12" rx="6" fill="white"/>
<rect x="40" y="177" width="12" height="12" rx="6" fill="white"/>
<rect x="65" y="177" width="12" height="12" rx="6" fill="white"/>
<rect x="90" y="177" width="12" height="12" rx="6" fill="white"/>
<g filter="url(#filter0_f_389_460)">
<rect x="53" y="144" width="12" height="12" rx="6" fill="white" fill-opacity="0.72"/>
<rect x="78" y="144" width="12" height="12" rx="6" fill="white" fill-opacity="0.72"/>
<rect x="103" y="144" width="12" height="12" rx="6" fill="white" fill-opacity="0.72"/>
<rect x="128" y="144" width="12" height="12" rx="6" fill="white" fill-opacity="0.72"/>
<rect x="53" y="174" width="12" height="12" rx="6" fill="white" fill-opacity="0.72"/>
<rect x="78" y="174" width="12" height="12" rx="6" fill="white" fill-opacity="0.72"/>
<rect x="103" y="174" width="12" height="12" rx="6" fill="white" fill-opacity="0.72"/>
<rect x="128" y="174" width="12" height="12" rx="6" fill="white" fill-opacity="0.72"/>
<rect x="53" y="204" width="12" height="12" rx="6" fill="white" fill-opacity="0.72"/>
<rect x="79" y="204" width="12" height="12" rx="6" fill="white" fill-opacity="0.72"/>
<rect x="105" y="204" width="12" height="12" rx="6" fill="white" fill-opacity="0.72"/>
<rect x="131" y="204" width="12" height="12" rx="6" fill="white" fill-opacity="0.72"/>
<rect x="53" y="234" width="12" height="12" rx="6" fill="white" fill-opacity="0.72"/>
<rect x="78" y="234" width="12" height="12" rx="6" fill="white" fill-opacity="0.72"/>
<rect x="103" y="234" width="12" height="12" rx="6" fill="white" fill-opacity="0.72"/>
<rect x="128" y="234" width="12" height="12" rx="6" fill="white" fill-opacity="0.72"/>
</g>
<defs>
<filter id="filter0_f_389_460" x="18" y="125" width="157" height="140" filterUnits="userSpaceOnUse" color-interpolation-filters="sRGB">
<feFlood flood-opacity="0" result="BackgroundImageFix"/>
<feBlend mode="normal" in="SourceGraphic" in2="BackgroundImageFix" result="shape"/>
<feGaussianBlur stdDeviation="8.5" result="effect1_foregroundBlur_389_460"/>
</filter>
<linearGradient id="paint0_linear_389_460" x1="-985.5" y1="-367" x2="1342.5" y2="645.999" gradientUnits="userSpaceOnUse">
<stop stop-color="#0075FF"/>
<stop offset="0.554327" stop-color="#9BC9FF"/>
<stop offset="1" stop-color="#66ACFF"/>
</linearGradient>
</defs>
</svg>
